<svg id="Layer_1" data-name="Layer 1" xmlns="http://www.w3.org/2000/svg" viewBox="0 0 845.89 576.83"><defs><style>.cls-1{font-size:187.36px;}.cls-1,.cls-2{fill:#00487e;font-family:Brela, Brela;}.cls-2{font-size:113.62px;}.cls-3{fill:#004480;stroke:#004480;stroke-linecap:round;stroke-linejoin:round;}</style></defs><title>pharos-production-logo-2018</title><g id="PHAROS_PRODUCTION" data-name="PHAROS PRODUCTION"><text class="cls-1" transform="translate(119.14 338.91)">PHAROS</text></g><g id="PHAROS_PRODUCTION-2" data-name="PHAROS PRODUCTION"><text class="cls-2" transform="translate(121.27 454.82)">PRODUCTION</text></g><path class="cls-3" d="M171.69,138.47s-5.95-16.81-14.7-22c-6.29-3.74-20,7.83-26.51,16-12.65,16-12.65,26.54-12.65,26.54l11.54-6.71s1.4-8.28,14.16-16.05C153.89,130,171.69,138.47,171.69,138.47Z" transform="translate(-57.27 -24.89)"/><path class="cls-3" d="M189.79,169.3l2.31-2.52s-11.85-17.22-42-15.22c-9.7.65-38.9,8.94-42.48,22.29-4.45,16.64,10.16,19.59,10.16,19.59L120.1,183s-10-2.27,1.23-13.38c7.42-7.33,24.5-13.86,40.88-12.83C181.69,158,189.79,169.3,189.79,169.3Z" transform="translate(-57.27 -24.89)"/><path class="cls-3" d="M126.82,172.07c3.92-3.72,11.94-5.9,11.94-5.9l10.76-1.11s-15.08,8.92-18.71,16.48c-4,8.37-1.4,20.17-1.4,20.17l-10.47,4.5S113.47,184.74,126.82,172.07Z" transform="translate(-57.27 -24.89)"/><path class="cls-3" d="M151.87,183.93c.6-8.35.49-10.89.49-10.89l4.63-1.29-2.31,20.62-4,.35A47.37,47.37,0,0,0,151.87,183.93Z" transform="translate(-57.27 -24.89)"/><path class="cls-3" d="M175.45,172.35l6.4,2,1.5,17.07-4.51.39a77.4,77.4,0,0,0-.8-9.14A51.15,51.15,0,0,0,175.45,172.35Z" transform="translate(-57.27 -24.89)"/><path class="cls-3" d="M197.39,205.47s-13.8-12.88-41-9.82c-25,2.82-51.56,12.64-55.18,31.52-2.86,14.89,16.67,26.52,16.67,26.52l9.62-13.56s-18.45-16.77,4.94-31.09c24.74-15.15,54.47-2.23,54.47-2.23Z" transform="translate(-57.27 -24.89)"/><path class="cls-3" d="M152.69,292.2c-1.94,5.38-39.59,78.61-58.27,129.76-14.9,40.81-36.65,121.47-36.65,121.47S60.91,497,75.2,434.77c25.54-111.25,78.69-194.64,78.69-194.64Z" transform="translate(-57.27 -24.89)"/><path class="cls-3" d="M153.89,403.23v76.3s-25,27.3-45,54.36c-11.62,15.71-42.26,67.33-42.26,67.33s13.92-51,34.38-96.64C121.66,458.4,153.89,403.23,153.89,403.23Z" transform="translate(-57.27 -24.89)"/><polygon class="cls-3" points="86.26 82.36 96.62 64.42 96.61 0.5 86.26 82.36"/><polygon class="cls-3" points="154.48 148.38 581.43 41.43 559 79 154.48 148.38"/><polygon class="cls-3" points="145.66 168.04 836.14 159.24 826.05 168.39 145.66 168.04"/></svg>